<svg id="Capa_1" enable-background="new 0 0 512 512" height="512" viewBox="0 0 512 512" width="512" xmlns="http://www.w3.org/2000/svg"><g><path d="m69.406 107.869c-36.514 42.809-58.546 98.324-58.546 158.986 0 135.391 109.755 245.145 245.145 245.145 4.466 0 8.911-.117 13.323-.362l54.517-54.517v-112.73l-92.173-41.115v-163.749z" fill="#5877d1"/><path d="m476.865 373.334c15.556-32.197 24.275-68.328 24.275-106.479 0-60.024-21.585-115.018-57.408-157.635l-212.059 30.308v163.749l92.173 41.115z" fill="#5877d1"/><path d="m75.825 288.375c0-63.36 21.616-121.668 57.87-167.963l-64.29-12.543c-36.513 42.809-58.545 98.324-58.545 158.986 0 106.663 68.128 197.399 163.236 231.109-60.045-50.014-98.271-125.334-98.271-209.589z" fill="#385ac4"/><path d="m476.865 373.334c-37.801 78.291-116.007 133.402-207.536 138.304l-6.369-15.46c-4.084-9.913-.76-21.303 7.922-27.497 6.072-4.306 9.665-11.292 9.665-18.736-.512-4.443 2.197-14.575-6.22-23.552l-12.005-12.802c-7.369-7.858-8.294-19.788-2.222-28.688l3.222-4.721c8.623-12.653 2.711-30.038-11.824-34.813l-34.855-11.441c-3.201-1.053-5.891-3.232-7.581-6.146l-23.903-41.118c-5.2-8.964-18.087-9.134-23.531-.308l-5.721 9.272c-2.531 4.094-6.965 6.518-11.664 6.518-9.009 0-15.546-8.508-13.291-17.183l12.377-47.381c.978-3.775 3.53-6.954 6.997-8.74l25.222-12.983c5.685-2.914 8.446-9.273 7.114-15.173-2.339-10.537-10.824-18.608-21.458-20.426-12.876-2.688-21.123-2.11-31.442-8.379l-36.602-22.213c-9.049-5.497-15.716-14.185-18.672-24.35l-5.083-17.449v-.011c44.967-52.719 111.87-86.149 186.6-86.149 75.357 0 142.77 34.005 187.727 87.51l-9.963 17.715c-3.787 6.767-10.83 11.471-18.937 12.122-8.102.649-15.322 5.37-19.161 12.526l-9.123 17.002c-4.455 8.304-13.376 13.217-22.787 12.547-5.697-.381-6.77-.564-9.485-.564-12.387 0-24.265 5.178-32.707 14.376-16.657 18.186-8.65 37.488-22.361 55.707l-20.798 27.752c-4.838 6.465-3.456 15.641 3.084 20.384l18.023 13.068c3.498 2.531 7.943 3.371 12.132 2.286 24.625-6.139 26.214-7.454 32.239-7.454 7.401 0 14.599 2.935 19.926 8.347 15.11 15.355 31.594 3.271 47.243 11.611 13.855 7.47 15.243 7.78 18.331 10.176z" fill="#71d5b4"/><path d="m195.855 29.152c-50.047 12.625-93.971 40.63-126.449 78.707v.011l5.083 17.449c2.956 10.165 9.623 18.853 18.672 24.35l15.291 9.28c20.961-38.79 51.064-71.899 87.404-96.492v-33.305z" fill="#31c695"/><path d="m183.863.001c-30.897-.112-54.888 26.684-53.047 57.527 1.879 31.478 22.786 59.82 37.732 76.261 8.097 8.907 22.113 8.934 30.212.028 15.662-17.223 37.893-47.533 37.893-80.83 0-29.198-23.617-52.88-52.79-52.986z" fill="#f98797"/><path d="m378.144 265.314c-30.897-.112-54.888 26.684-53.047 57.527 1.879 31.478 22.786 59.82 37.732 76.261 8.097 8.907 22.113 8.934 30.212.028 15.662-17.223 37.893-47.533 37.893-80.83 0-29.198-23.616-52.88-52.79-52.986z" fill="#f98797"/><path d="m172.51 56.307c0-21.383 8.367-40.801 21.986-55.199-3.434-.713-6.99-1.094-10.633-1.108-30.897-.112-54.888 26.685-53.047 57.527 1.879 31.478 22.786 59.82 37.732 76.261 8.097 8.907 22.113 8.934 30.212.028 2.902-3.191 6.03-6.834 9.199-10.859-21.387-14.44-35.449-38.902-35.449-66.65z" fill="#e35b70"/><path d="m366.791 321.62c0-21.383 8.367-40.801 21.986-55.199-3.434-.713-6.99-1.094-10.633-1.108-30.897-.112-54.888 26.685-53.047 57.527 1.879 31.478 22.786 59.82 37.732 76.261 8.097 8.907 22.113 8.934 30.212.028 2.902-3.191 6.03-6.833 9.199-10.859-21.387-14.44-35.449-38.902-35.449-66.65z" fill="#e35b70"/><g fill="#e8e7f9"><circle cx="183.666" cy="52.987" r="19.398"/><circle cx="377.947" cy="318.3" r="19.398"/></g></g></svg>